<svg xmlns="http://www.w3.org/2000/svg" viewBox="0 0 612 792"><path fill="#09C" d="M223.1 266.4h164.5v164.5H223.1z"/><g fill="#FFF"><path d="M259.7 292.3c-.3-1.8-1.1-4.5-3.9-4.5-4.7 0-4.7 6-4.7 9.3 0 5.3.4 7 1.3 8.4.7 1.2 2.3 1.8 3.6 1.8.3 0 2.3.1 4.2-1.5v-4.6h-4.1v-4.3h9.3v11.6c-2.3 1.7-4.8 3.4-9.7 3.4-8.8 0-9.9-8-9.9-13.7 0-6.3.9-9.2 3-11.5 2.7-3.1 6-3.1 7.4-3.1 7.4 0 8.3 5 8.8 7.9l-5.3.8zM274.1 283.8v23.1h10.5v4.3H269v-27.5h5.1zM305 297.9c0 3.5 0 13.8-10 13.8-7.4 0-10-5.6-10-14.5 0-7.1 2-13.8 9.9-13.8 8.9-.1 10.1 8 10.1 14.5zm-9.9 9.4c1.9 0 3.1-1.2 3.6-2.2.6-1.2 1-2.3 1-8.5 0-2.5 0-8.8-4.6-8.8-1.5 0-3.1.8-3.9 3.3-.6 1.7-.7 5.5-.7 7.4-.1 2.5 0 8.8 4.6 8.8zM316.1 283.8c6 0 7.7 3.5 7.7 6.8 0 2.4-.9 4.9-4.3 6.1v.1c4.1.8 5.4 3.6 5.4 6.9 0 3.3-1.6 7.6-8.3 7.6h-8.5v-27.5h8zm-2.9 11.1h1.5c1 0 4.1 0 4.1-3.3s-3-3.3-3.8-3.3h-1.7v6.6zm0 11.9h1.7c1.9 0 4.6-.3 4.6-3.8 0-3.6-3.3-3.7-4.6-3.7h-1.7v7.5zM339.8 283.8l7.8 27.5h-5.4l-1.3-5.4H333l-1.3 5.4h-5.4l7.9-27.5h5.6zm.1 17.5l-2.8-12.4h-.1l-2.9 12.4h5.8zM354.7 283.8v23.1h10.5v4.3h-15.6v-27.5h5.1z"/></g><g fill="#333"><path d="M261.8 320.5v4.4H252v7h7.8v4.4H252v12.2h-5.3v-28h15.1zM284.5 334.9c0 3.5 0 14.1-10.2 14.1-7.6 0-10.2-5.7-10.2-14.8 0-7.2 2.1-14.1 10.1-14.1 9.1-.1 10.3 8.2 10.3 14.8zm-10.2 9.6c1.9 0 3.1-1.2 3.7-2.3.6-1.2 1-2.3 1-8.7 0-2.5 0-9-4.7-9-1.6 0-3.2.8-4 3.3-.6 1.7-.7 5.6-.7 7.6 0 2.6 0 9.1 4.7 9.1zM297.2 320.5c.2 0 2.3 0 4.1.4 2.6.5 5.4 2.9 5.4 7.6 0 5.6-4.4 7-6.1 7.5v.1c.7.2 1.3.4 2.3 1.5.5.6 2 3 2.3 3.5l3.7 7.5h-6l-4.3-8.1c-1.9-3.6-2.7-3.6-4.8-3.6h-.8v11.7h-5.3v-28h9.5zm-4 12.1h2.7c3.1 0 5.6-.6 5.6-3.9 0-3.6-3.5-3.6-5.1-3.6h-3.1v7.5zM325.3 320.5v4.4h-9.4v6.7h8.5v4.4h-8.5v8.1h9.9v4.4h-15.1v-28h14.6zM339.9 328.7c-.2-1.3-.6-4.3-3.4-4.3-1.4 0-2.9.9-2.9 2.7 0 2.3 2.4 3.4 5 4.7 4.7 2.2 7.3 4.5 7.3 8.8 0 4.3-2.9 8.4-9.1 8.4-8.5 0-9-6.6-9.2-9.5l5.4-.5c.2 2.5.7 5.4 4 5.4 2.7 0 3.6-1.9 3.6-3.4 0-2.6-2.4-3.8-5.8-5.3-3.1-1.4-6.5-3.3-6.5-8.1 0-3.9 2.7-7.6 8.6-7.6 7.4 0 8 5.5 8.2 8.3l-5.2.4zM365.4 320.5v4.4h-6.5v23.6h-5.3v-23.6h-6.5v-4.4h18.3z"/></g><g fill="#FFF"><path d="M252.9 358.9l3.4 19.9h.1l4.8-19.9h6.7l4.7 19.8h.1l3.4-19.8h5.8l-6 29.9h-6.2l-5.2-21.9h-.1l-5.3 21.9h-6.2l-5.8-29.9h5.8zM295.4 358.9l8.5 29.9H298l-1.4-5.9H288l-1.4 5.9h-5.9l8.6-29.9h6.1zm.1 19.1l-3.1-13.5h-.1l-3.1 13.5h6.3zM321.8 358.9v4.7h-6.9v25.2h-5.6v-25.2h-6.9v-4.7h19.4zM336.2 368.4c-.3-1.7-.8-5.1-3.7-5.1-4.2 0-4.2 5.7-4.2 10.3 0 5.7.3 7.2 1 8.7.6 1.2 1.8 2.1 3.2 2.1 3.2 0 3.8-3.8 4.1-6.3l5.6 1.8c-1 7.4-5.2 9.4-9.5 9.4-9.1 0-10.2-9.3-10.2-15.3 0-5.9.4-15.6 10.1-15.6 7.4 0 8.7 5.4 9.4 8.7l-5.8 1.3zM351.2 358.9v11.8h8.3v-11.8h5.6v29.9h-5.6v-13.2h-8.3v13.2h-5.6v-29.9h5.6z"/></g><g fill="#231F20"><path d="M249.3 398.6l2 12h.1l2.9-12h4l2.8 11.9h.1l2.1-11.9h3.5l-3.6 18h-3.8l-3.1-13.2h-.1l-3.2 13.2h-3.8l-3.5-18h3.6zM287.3 398.6l5.1 18h-3.6l-.8-3.6h-5.2l-.9 3.6h-3.6l5.2-18h3.8zm0 11.5l-1.9-8.2h-.1l-1.9 8.2h3.9zM315.4 398.6v2.8h-4.2v15.2h-3.4v-15.2h-4.2v-2.8h11.8zM338.4 398.6v2.8h-6v4.3h5.5v2.8h-5.5v5.2h6.3v2.8h-9.8v-18h9.5zM358.9 398.6c.1 0 1.5 0 2.7.3 1.7.4 3.5 1.9 3.5 4.9 0 3.6-2.8 4.5-3.9 4.8v.1c.5.2.9.3 1.5 1 .4.4 1.3 1.9 1.5 2.3l2.4 4.8h-3.9l-2.7-5.2c-1.2-2.3-1.7-2.3-3.1-2.3h-.5v7.5H353v-18h5.9zm-2.6 7.8h1.7c2 0 3.6-.4 3.6-2.5 0-2.3-2.2-2.3-3.3-2.3h-2v4.8z"/></g></svg>