<svg xmlns="http://www.w3.org/2000/svg" width="550.801" height="550.801" viewBox="0 0 550.801 550.801" fill="#E62F1A"><path d="M267.342 414.698c-6.613 0-10.884.585-13.413 1.165v85.72c2.533.586 6.615.586 10.303.586 26.818.188 44.315-14.577 44.315-45.875.19-27.216-15.745-41.597-41.206-41.597zM152.837 414.313c-6.022 0-10.104.58-12.248 1.16v38.686c2.53.58 5.642.78 9.902.78 15.757 0 25.47-7.974 25.47-21.385.002-12.05-8.36-19.242-23.125-19.242z"/><path d="M475.095 131.992c-.032-2.526-.833-5.02-2.568-6.993L366.324 3.693c-.02-.034-.062-.045-.084-.076-.633-.707-1.36-1.29-2.14-1.804-.233-.15-.476-.285-.72-.422A11.07 11.07 0 0 0 361.25.5c-.19-.058-.38-.14-.58-.192-.8-.194-1.633-.308-2.467-.308H97.2C85.292 0 75.6 9.693 75.6 21.6v507.6c0 11.914 9.692 21.602 21.6 21.602h356.4c11.908 0 21.6-9.688 21.6-21.6v-396c0-.406-.063-.804-.105-1.21zM193.26 463.872c-10.103 9.524-25.07 13.807-42.568 13.807-3.882 0-7.39-.2-10.102-.58v46.838h-29.35V394.675c9.13-1.55 21.967-2.72 40.047-2.72 18.267 0 31.292 3.5 40.036 10.493 8.363 6.612 13.985 17.497 13.985 30.322 0 12.835-4.266 23.72-12.047 31.103zm124.992 44.52c-13.785 11.464-34.778 16.906-60.428 16.906-15.36 0-26.238-.97-33.637-1.94V394.675c10.887-1.74 25.083-2.72 40.046-2.72 24.867 0 41.004 4.47 53.645 13.994 13.61 10.108 22.164 26.24 22.164 49.37-.01 25.08-9.145 42.377-21.79 53.072zm121.32-91.167h-50.35v29.932h47.038v24.11h-47.04v52.67h-29.73V392.936h80.082v24.29zM97.2 366.752V21.602h250.203v110.514c0 5.96 4.83 10.8 10.8 10.8H453.6l.01 223.836H97.2z"/><path d="M386.205 232.135c-.633-.06-15.852-1.448-39.213-1.448-7.32 0-14.69.143-21.97.417-46.132-34.62-83.918-69.267-104.147-88.684.37-2.138.623-3.828.74-5.126 2.67-28.165-.297-47.18-8.785-56.515-5.558-6.102-13.72-8.132-22.233-5.807-5.286 1.385-15.07 6.513-18.204 16.952-3.46 11.536 2.1 25.537 16.708 41.773.233.246 5.19 5.44 14.197 14.24-5.854 27.914-21.178 88.15-28.613 117.074-17.463 9.33-32.013 20.57-43.277 33.465l-.738.844-.478 1.014c-1.16 2.437-6.705 15.087-2.542 25.25 1.9 4.62 5.463 7.994 10.302 9.766l1.297.35s1.17.252 3.226.252c9.01 0 31.25-4.735 43.18-48.695l2.89-11.138c41.638-20.24 93.687-26.77 131.414-28.588 19.406 14.39 38.717 27.61 57.428 39.318l.61.354c.908.464 9.113 4.515 18.722 4.524 13.732 0 23.762-8.427 27.496-23.113l.19-1.004c1.043-8.392-1.066-15.957-6.097-21.87-10.6-12.46-30.332-13.545-32.105-13.605zm-243.393 87.61a.995.995 0 0 1-.166-.3c-.896-2.158.18-7.39 1.76-11.223 6.793-7.594 14.946-14.565 24.354-20.84-9.162 29.657-22.486 32.22-25.948 32.362zm58.172-197.05c-14.07-15.662-13.86-23.427-13.102-26.04 1.242-4.37 6.848-6.02 6.896-6.036 2.824-.77 4.538-.618 6.064 1.057 3.45 3.79 6.415 15.232 5.244 36.218-3.322-3.338-5.102-5.2-5.102-5.2zm-7.27 133.373l.243-.928-.032.01c7.045-27.592 17.205-67.995 23.047-93.948l.21.2.022-.123c18.9 17.797 47.88 43.83 82.58 70.906l-.39.016.573.433c-32.688 2.76-71.73 9.205-106.253 23.433zm214.672 9.052c-2.49 9.146-7.277 10.396-11.665 10.396-5.093 0-9.997-2.12-11.115-2.632-12.74-7.986-25.776-16.688-38.93-25.998h.317c22.55 0 37.568 1.37 38.158 1.41 3.766.14 15.684 1.9 20.82 7.94 2.014 2.366 2.785 5.195 2.416 8.884z"/></svg>