<svg width="15" height="15" viewBox="0 0 15 15" xmlns="http://www.w3.org/2000/svg"><title>icon-share</title><g id="Page-1" fill="none" fill-rule="evenodd"><g id="icon-share" fill-rule="nonzero" fill="#FFF"><path d="M12.3 9.4c-.7 0-1.4.3-1.8.8L5.2 7.6v-.4-.4l5.3-2.6c.4.5 1 .8 1.8.8 1.4 0 2.5-1 2.5-2.5 0-1.4-1-2.5-2.5-2.5C11 0 9.8 1 9.8 2.5V3L4.5 5.4c-.4-.5-1-.8-1.8-.8-1.4 0-2.5 1-2.5 2.5 0 1.4 1 2.5 2.5 2.5.7 0 1.4-.3 1.8-.8l5.3 2.5v.4c0 1.3 1 2.4 2.5 2.4 1.4 0 2.5-1 2.5-2.5s-1-2.6-2.5-2.6z" id="Shape"/></g></g></svg>